{"asset":{"version":"2.0","generator":"THREE.GLTFExporter"},"scenes":[{"nodes":[0],"name":"AuxScene"}],"scene":0,"nodes":[{"mesh":0}],"bufferViews":[{"buffer":0,"byteOffset":0,"byteLength":105264,"target":34962,"byteStride":12},{"buffer":0,"byteOffset":105264,"byteLength":105264,"target":34962,"byteStride":12}],"buffers":[{"byteLength":210528,"uri":"data:application/octet-stream;base64,"}],"accessors":[{"bufferView":0,"componentType":5126,"count":8772,"max":[74.40000915527344,10.487000465393066,74.40000915527344],"min":[-74.4000015258789,-2.513000011444092,-74.4000015258789],"type":"VEC3"},{"bufferView":1,"componentType":5126,"count":8772,"max":[0.9576930403709412,1,0.955880880355835],"min":[-1,0,-1],"type":"VEC3"}],"materials":[{"pbrMetallicRoughness":{"baseColorFactor":[0.5019607843137255,0.5019607843137255,0.5019607843137255,1],"metallicFactor":0,"roughnessFactor":1}}],"meshes":[{"primitives":[{"mode":4,"attributes":{"POSITION":0,"NORMAL":1},"material":0}]}]}