{"asset":{"version":"2.0","generator":"THREE.GLTFExporter"},"scenes":[{"nodes":[0],"name":"AuxScene"}],"scene":0,"nodes":[{"mesh":0}],"bufferViews":[{"buffer":0,"byteOffset":0,"byteLength":134964,"target":34962,"byteStride":12},{"buffer":0,"byteOffset":134964,"byteLength":134964,"target":34962,"byteStride":12}],"buffers":[{"byteLength":269928,"uri":"data:application/octet-stream;base64,"}],"accessors":[{"bufferView":0,"componentType":5126,"count":11247,"max":[44.88678741455078,20.803089141845703,97.78321838378906],"min":[-104.31321716308594,-4.996910095214844,-51.41679000854492],"type":"VEC3"},{"bufferView":1,"componentType":5126,"count":11247,"max":[0.9927648901939392,1,0.9923719763755798],"min":[-0.993126630783081,0.03349297121167183,-0.979957640171051],"type":"VEC3"}],"materials":[{"pbrMetallicRoughness":{"baseColorFactor":[0.5019607843137255,0.5019607843137255,0.5019607843137255,1],"metallicFactor":0,"roughnessFactor":1}}],"meshes":[{"primitives":[{"mode":4,"attributes":{"POSITION":0,"NORMAL":1},"material":0}]}]}